<?xml version="1.0" encoding="iso-8859-1"?>
<!-- Generator: Adobe Illustrator 19.0.0, SVG Export Plug-In . SVG Version: 6.00 Build 0)  -->
<svg version="1.1" id="Capa_1" xmlns="http://www.w3.org/2000/svg" xmlns:xlink="http://www.w3.org/1999/xlink" x="0px" y="0px"
	 viewBox="0 0 512 512" style="enable-background:new 0 0 512 512;" xml:space="preserve">
<g>
	<g>
		<path d="M401,111c61.206,0,111-49.794,111-111H0c0,61.206,49.794,111,111,111h85v30h-85c-22.866,0-44.476-5.477-63.594-15.179
			L65,417l-20,65c0,0,90,30,211,30s211-30,211-30l-20-65l17.594-291.179C445.476,135.523,423.866,141,401,141h-85v-30H401z M391,51
			c11.046,0,20,8.954,20,20s-8.954,20-20,20c-11.046,0-20-8.954-20-20S379.954,51,391,51z M121,91c-11.046,0-20-8.954-20-20
			s8.954-20,20-20s20,8.954,20,20S132.046,91,121,91z M316,342h-45v60h45v30h-45v30h-30v-30h-45v-30h45v-60h-45v-30h45v-71h30v71h45
			V342z M371,296c0,19.299,15.701,35,35,35v30c-35.841,0-65-29.159-65-65c0-46.869-38.131-85-85-85c-46.869,0-85,38.131-85,85
			c0,35.841-29.159,65-65,65v-30c19.299,0,35-15.701,35-35c0-63.411,51.589-115,115-115S371,232.589,371,296z"/>
	</g>
</g>
<g>
</g>
<g>
</g>
<g>
</g>
<g>
</g>
<g>
</g>
<g>
</g>
<g>
</g>
<g>
</g>
<g>
</g>
<g>
</g>
<g>
</g>
<g>
</g>
<g>
</g>
<g>
</g>
<g>
</g>
</svg>
