<svg height="650pt" viewBox="-20 -64 650.66632 650" width="650pt" xmlns="http://www.w3.org/2000/svg"><path d="m600.007812 33.597656h-.011718l-97.972656.113282c-3.574219-.039063-6.890626 1.847656-8.691407 4.941406-1.796875 3.09375-1.796875 6.90625.007813 10 1.800781 3.089844 5.125 4.972656 8.699218 4.925781h.019532l73.039062-.085937-238.605468 228.730468-83.691407-74.109375c-3.613281-3.195312-8.996093-3.355469-12.789062-.375l-236.1875 185.25c-4.339844 3.40625-5.101563 9.683594-1.691407 14.023438 3.40625 4.34375 9.683594 5.105469 14.023438 1.699219l229.640625-180.109376 84.34375 74.695313c3.894531 3.449219 9.78125 3.332031 13.535156-.261719l246.308594-236.09375-.125 70.222656c-.015625 5.53125 4.4375 10.035157 9.964844 10.078126h.019531c5.527344-.035157 9.984375-4.515626 9.988281-10.042969l.167969-93.648438c.003906-2.648437-1.050781-5.1875-2.921875-7.054687-1.878906-1.867188-4.421875-2.910156-7.070313-2.898438zm0 0"/><path d="m341.21875 434.472656h124.882812v28.722656h-124.882812zm0 0"/><path d="m286.269531 394.355469v108.378906c-.019531 4.457031 1.757813 8.730469 4.929688 11.863281 3.164062 3.132813 7.457031 4.863282 11.914062 4.792969h18.125v-142.363281h-18.125c-9.417969.179687-16.929687 7.90625-16.84375 17.328125zm0 0"/><path d="m242.5625 434.097656v24.476563c0 9.367187 7.019531 17.109375 16.390625 17.109375h7.335937v-58.695313h-7.335937c-9.371094 0-16.390625 7.742188-16.390625 17.109375zm0 0"/><path d="m548.722656 416.988281h-7.691406v58.695313h7.691406c9.460938-.039063 17.148438-7.648438 17.285156-17.109375v-24.476563c-.136718-9.460937-7.824218-17.070312-17.285156-17.109375zm0 0"/><path d="m504.5625 377.027344h-18.480469v142.363281h18.480469c4.417969.054687 8.667969-1.691406 11.773438-4.832031 3.109374-3.136719 4.8125-7.40625 4.714843-11.824219v-108.378906c0-9.371094-7.121093-17.328125-16.488281-17.328125zm0 0"/><path d="m60.027344 94.792969h7.699218v-57.449219h-7.699218c-9.371094 0-17.277344 7.066406-17.277344 16.441406v24.472656c0 9.371094 7.90625 16.535157 17.277344 16.535157zm0 0"/><path d="m142.65625 53.578125h124.882812v28.726563h-124.882812zm0 0"/><path d="m287.519531-2.617188v142.367188h18.121094c9.417969-.179688 16.933594-7.914062 16.847656-17.328125v-108.378906c.011719-4.453125-1.761719-8.734375-4.929687-11.863281-3.171875-3.132813-7.460938-4.859376-11.917969-4.796876zm0 0"/><path d="m342.46875 37.34375v57.449219h7.332031c4.394531.078125 8.632813-1.644531 11.726563-4.769531 3.097656-3.121094 4.78125-7.375 4.667968-11.769532v-24.46875c.109376-4.386718-1.582031-8.625-4.679687-11.726562-3.097656-3.109375-7.332031-4.8125-11.714844-4.714844zm0 0"/><path d="m87.707031 14.042969v108.378906c0 9.371094 7.117188 17.328125 16.484375 17.328125h18.484375v-142.367188h-18.484375c-4.421875-.054687-8.667968 1.691407-11.777344 4.835938-3.105468 3.140625-4.804687 7.402344-4.707031 11.824219zm0 0"/></svg>