<svg height="554pt" viewBox="-17 -45 554.66564 554" width="554pt" xmlns="http://www.w3.org/2000/svg"><path d="m469.402344 31.9375c-23.257813-21.011719-52.605469-32.117188-84.867188-32.117188-37.265625 0-78.308594 15.492188-118.703125 44.808594-3.535156 2.566406-8.335937 2.539063-11.835937-.078125-40.992188-30.578125-81.125-46.082031-119.277344-46.082031-32.339844 0-61.644531 11.152344-84.742188 32.253906-23.363281 21.320313-39.355468 51.84375-46.25 88.238282-7.152343 37.261718-4.191406 78.648437 10.441407 120.277343h88.605469l50.910156-99.460937c1.859375-3.628906 5.742187-5.765625 9.808594-5.394532 4.058593.371094 7.484374 3.175782 8.65625 7.082032l61.660156 205.921875 63.085937-159.597657c1.53125-3.875 5.300781-6.390624 9.464844-6.316406 4.164063.070313 7.847656 2.71875 9.242187 6.640625l40.394532 113.644531 80.300781-60.5c1.730469-1.308593 3.835937-2.015624 6.007813-2.019531h63.28125c14.351562-40.234375 18.160156-81.445312 10.640624-120.207031-7.238281-35.847656-23.429687-65.960938-46.824218-87.09375zm0 0"/><path d="m357.152344 325.894531c-2.535156 1.914063-5.839844 2.507813-8.882813 1.589844-3.050781-.917969-5.472656-3.226563-6.542969-6.226563l-36.039062-101.375-63.886719 161.644532c-1.507812 3.816406-5.195312 6.316406-9.292969 6.316406-.144531 0-.289062 0-.429687-.003906-4.253906-.183594-7.921875-3.039063-9.148437-7.121094l-62.796876-209.703125-42.363281 82.769531c-1.710937 3.335938-5.144531 5.433594-8.894531 5.433594h-86.792969c34.03125 76.941406 108.847657 152.621094 234.515625 202.558594 1.09375.375 2.226563.636718 3.371094.761718 1.136719-.125 2.25-.375 3.328125-.75 94.835937-38.480468 168.148437-94.464843 212.046875-161.925781 8.449219-12.953125 15.871094-26.535156 22.207031-40.644531h-51.902343zm0 0"/></svg>