<?xml version="1.0" encoding="utf-8"?>
<!-- Generator: Adobe Illustrator 22.0.1, SVG Export Plug-In . SVG Version: 6.00 Build 0)  -->
<svg version="1.1" id="Layer_1" xmlns="http://www.w3.org/2000/svg" xmlns:xlink="http://www.w3.org/1999/xlink" x="0px" y="0px"
	 viewBox="0 0 50 50" style="enable-background:new 0 0 50 50;" xml:space="preserve">
<style type="text/css">
	.st0{fill:#7FC7E6;}
	.st1{fill:#F7976A;}
	.st2{fill:#F15D62;}
	.st3{fill:#6096A8;}
	.st4{fill:#AF464E;}
	.st5{fill:#BC7255;}
	.st6{fill:none;stroke:#E52B8F;stroke-width:0.75;stroke-linecap:round;stroke-miterlimit:10;}
</style>
<polygon class="st0" points="21.4,23.1 21.6,22.9 24.7,21 24.7,16.4 18.4,20.3 18.4,38.4 21.4,38.4 21.4,23.3 "/>
<polygon class="st1" points="25.1,20.8 27.9,19 28.6,18.6 28.6,19.4 28.6,38.4 31.4,38.4 31.4,6 25.1,9.9 25.1,15.6 25.1,16.4 "/>
<polygon class="st2" points="25.1,21.3 24.7,21.6 21.9,23.3 21.9,38.4 21.9,38.8 21.9,41.4 28.1,41.4 28.1,38.8 28.1,38.4 
	28.1,19.4 "/>
<path class="st3" d="M21.3,34.2c-1,0-2-0.1-2.9-0.2l0-0.5c0.9,0.1,1.9,0.1,2.9,0.2L21.3,34.2z"/>
<path class="st4" d="M25,35c-1.1,0-2.1,0-3.1,0l0-0.5c2,0.1,4.2,0.1,6.2,0l0,0.5C27.1,35,26.1,35,25,35z"/>
<path class="st5" d="M28.7,34.2l0-0.5c0.9,0,1.8-0.1,2.7-0.1l0,0.5C30.5,34.2,29.6,34.2,28.7,34.2z"/>
<path class="st6" d="M32.4,29.7c2.8,0.3,4.6,0.6,4.6,1.1c0,0.8-5.4,1.4-12,1.4s-12-0.6-12-1.4c0-0.4,1.6-0.8,4.2-1.1"/>
</svg>
