<svg height="561pt" viewBox="-93 -17 561 561.33147" width="561pt" xmlns="http://www.w3.org/2000/svg"><path d="m371.046875 338.277344c0 103.8125-84.15625 187.972656-187.96875 187.972656-103.816406 0-187.976563-84.160156-187.976563-187.972656s84.160157-187.976563 187.976563-187.976563c103.8125 0 187.96875 84.164063 187.96875 187.976563zm0 0"/><path d="m34.640625 73.585938v118.929687c8.734375-8.027344 16.21875-15.414063 26.195313-22.074219v-96.855468c-.042969-12.613282 4.957031-24.71875 13.890624-33.617188 8.933594-8.902344 21.054688-13.863281 33.664063-13.773438h149.367187c12.609376-.089843 24.734376 4.871094 33.664063 13.773438 8.9375 8.898438 13.9375 21.003906 13.898437 33.617188v96.847656c9.976563 6.667968 17.460938 14.054687 26.191407 22.078125v-118.925781c-.179688-40.632813-33.121094-73.5039068-73.753907-73.585938h-149.367187c-40.628906.0820312-73.574219 32.953125-73.75 73.585938zm0 0"/></svg>