<?xml version="1.0" standalone="no"?>
<!DOCTYPE svg PUBLIC "-//W3C//DTD SVG 20010904//EN"
 "http://www.w3.org/TR/2001/REC-SVG-20010904/DTD/svg10.dtd">
<svg version="1.0" xmlns="http://www.w3.org/2000/svg"
 width="1583.000000pt" height="1590.000000pt" viewBox="0 0 1583.000000 1590.000000"
 preserveAspectRatio="xMidYMid meet">
<metadata>
Created by potrace 1.14, written by Peter Selinger 2001-2017
</metadata>
<g transform="translate(0.000000,1590.000000) scale(0.100000,-0.100000)"
fill="#000000" stroke="none">

<path d="M10550 11847 l0 -904 -22 -20 c-13 -12 -50 -35 -83 -53 -88 -46 -158
-87 -172 -99 -7 -6 -19 -11 -28 -11 -8 0 -15 -4 -15 -8 0 -5 -22 -19 -50 -32
-27 -13 -50 -27 -50 -32 0 -4 -4 -8 -9 -8 -9 0 -48 -22 -201 -111 -36 -21 -87
-50 -115 -65 -27 -14 -51 -30 -53 -35 -2 -5 -12 -9 -23 -9 -10 0 -19 -4 -19
-10 0 -5 -9 -10 -20 -10 -11 0 -20 -4 -20 -9 0 -5 -13 -14 -30 -21 -16 -7 -30
-16 -30 -21 0 -5 -9 -9 -20 -9 -11 0 -20 -4 -20 -10 0 -5 -9 -10 -20 -10 -11
0 -20 -3 -20 -7 0 -5 -23 -19 -50 -32 -28 -14 -50 -29 -50 -33 0 -4 -9 -8 -20
-8 -11 0 -20 -4 -20 -8 0 -4 -22 -19 -50 -33 -27 -13 -50 -27 -50 -30 0 -4
-13 -12 -30 -19 -16 -7 -30 -16 -30 -21 0 -5 -9 -9 -20 -9 -11 0 -20 -4 -20
-10 0 -5 -9 -10 -20 -10 -11 0 -20 -4 -20 -9 0 -5 -13 -14 -30 -21 -16 -7 -30
-16 -30 -21 0 -5 -9 -9 -20 -9 -11 0 -20 -4 -20 -10 0 -5 -9 -10 -20 -10 -11
0 -20 -4 -20 -10 0 -5 -9 -10 -20 -10 -11 0 -20 -4 -20 -9 0 -5 -13 -14 -30
-21 -16 -7 -30 -16 -30 -21 0 -5 -9 -9 -20 -9 -11 0 -20 -4 -20 -9 0 -5 -13
-14 -30 -21 -16 -7 -30 -16 -30 -21 0 -5 -9 -9 -20 -9 -11 0 -20 -4 -20 -9 0
-5 -13 -14 -30 -21 -16 -7 -30 -16 -30 -21 0 -5 -9 -9 -20 -9 -11 0 -20 -4
-20 -10 0 -5 -9 -10 -20 -10 -11 0 -20 -4 -20 -10 0 -5 -9 -10 -20 -10 -11 0
-20 -4 -20 -9 0 -5 -13 -14 -30 -21 -16 -7 -30 -16 -30 -21 0 -5 -9 -9 -20 -9
-11 0 -20 -4 -20 -10 0 -5 -9 -10 -20 -10 -11 0 -20 -4 -20 -9 0 -5 -13 -14
-30 -21 -16 -7 -30 -16 -30 -21 0 -5 -9 -9 -20 -9 -11 0 -20 -4 -20 -9 0 -5
-13 -14 -30 -21 -16 -7 -30 -16 -30 -21 0 -5 -9 -9 -20 -9 -11 0 -20 -4 -20
-9 0 -5 -13 -14 -30 -21 -16 -7 -30 -16 -30 -21 0 -5 -9 -9 -20 -9 -11 0 -20
-4 -20 -10 0 -5 -9 -10 -20 -10 -11 0 -20 -4 -20 -10 0 -5 -9 -10 -20 -10 -11
0 -20 -4 -20 -9 0 -5 -13 -14 -30 -21 -16 -7 -30 -16 -30 -21 0 -5 -9 -9 -20
-9 -11 0 -20 -5 -20 -10 0 -10 -30 3 -60 27 -8 6 -49 29 -90 50 -41 21 -94 51
-117 66 -24 15 -45 27 -47 27 -3 0 -25 14 -49 30 -25 17 -48 30 -53 30 -4 0
-15 6 -23 14 -9 8 -42 28 -74 44 -31 16 -63 34 -70 40 -6 6 -37 23 -67 39 -30
16 -74 41 -97 56 -24 15 -45 27 -47 27 -3 0 -56 30 -118 68 -62 37 -126 74
-143 82 -16 8 -37 20 -45 26 -8 7 -40 25 -70 41 -49 26 -98 54 -155 90 -11 7
-38 22 -60 34 -22 12 -47 27 -55 34 -8 7 -49 30 -90 52 -41 21 -93 50 -115 64
-22 14 -56 33 -75 43 -37 18 -81 44 -140 81 -19 12 -82 48 -140 80 -58 32
-116 65 -130 75 -14 9 -52 32 -85 49 -33 18 -85 48 -115 66 -30 19 -80 48
-110 65 -30 17 -86 49 -124 71 -38 21 -82 39 -99 39 -29 0 -80 -27 -264 -137
-40 -24 -77 -43 -83 -43 -5 0 -10 -4 -10 -10 0 -5 -5 -10 -10 -10 -6 0 -40
-18 -76 -40 -36 -22 -67 -40 -69 -40 -2 0 -74 -41 -162 -92 -87 -50 -168 -96
-180 -102 -13 -6 -23 -14 -23 -18 0 -5 -9 -8 -20 -8 -11 0 -20 -4 -20 -10 0
-5 -5 -10 -11 -10 -6 0 -29 -13 -52 -28 -23 -16 -57 -35 -75 -43 -17 -8 -32
-17 -32 -21 0 -5 -9 -8 -20 -8 -11 0 -20 -4 -20 -9 0 -5 -8 -11 -17 -14 -18
-6 -73 -37 -83 -47 -3 -3 -26 -16 -53 -29 -26 -13 -47 -28 -47 -33 0 -4 -9 -8
-20 -8 -11 0 -20 -4 -20 -10 0 -5 -7 -10 -15 -10 -8 0 -15 -4 -15 -8 0 -5 -16
-14 -35 -22 -19 -8 -35 -17 -35 -22 0 -4 -9 -8 -20 -8 -11 0 -20 -4 -20 -10 0
-5 -7 -10 -15 -10 -8 0 -15 -4 -15 -8 0 -5 -16 -14 -35 -22 -19 -8 -35 -17
-35 -22 0 -4 -9 -8 -20 -8 -11 0 -20 -4 -20 -9 0 -5 -8 -11 -18 -14 -17 -6
-72 -37 -82 -47 -3 -3 -18 -12 -35 -20 -16 -8 -32 -17 -35 -20 -10 -10 -65
-41 -82 -47 -10 -3 -18 -8 -18 -12 0 -4 -16 -13 -35 -21 -19 -8 -35 -17 -35
-22 0 -4 -9 -8 -20 -8 -11 0 -20 -4 -20 -9 0 -5 -13 -14 -30 -21 -16 -7 -30
-16 -30 -21 0 -5 -9 -9 -20 -9 -11 0 -20 -4 -20 -10 0 -5 -9 -10 -20 -10 -11
0 -20 -4 -20 -9 0 -5 -8 -11 -17 -14 -18 -6 -73 -37 -83 -47 -3 -3 -15 -11
-27 -17 -13 -7 -33 -19 -45 -25 -13 -7 -25 -15 -28 -18 -10 -10 -65 -41 -82
-47 -10 -3 -18 -9 -18 -14 0 -5 -9 -9 -20 -9 -11 0 -20 -4 -20 -10 0 -5 -9
-10 -20 -10 -11 0 -20 -4 -20 -9 0 -5 -13 -14 -30 -21 -17 -7 -30 -16 -30 -21
0 -5 -9 -9 -20 -9 -11 0 -20 -4 -20 -10 0 -9 -42 11 -125 60 -16 10 -57 32
-90 50 -33 18 -82 47 -110 65 -53 33 -156 94 -240 140 -27 16 -67 39 -87 52
-21 12 -40 23 -43 23 -4 0 -95 53 -155 90 -14 8 -117 68 -200 115 -19 11 -62
36 -95 55 -33 19 -77 44 -97 55 -45 24 -190 109 -238 140 -105 66 -156 81
-183 53 -24 -26 -38 -66 -35 -99 3 -32 8 -37 86 -75 46 -23 91 -48 100 -56 9
-8 42 -27 73 -42 32 -14 62 -33 69 -41 7 -8 17 -15 22 -15 6 0 29 -13 52 -28
22 -15 58 -35 78 -45 20 -10 40 -22 43 -27 3 -5 44 -27 90 -50 46 -23 87 -45
90 -50 3 -5 35 -23 70 -40 35 -17 67 -35 70 -40 3 -5 23 -17 43 -27 20 -10 56
-30 78 -45 23 -15 44 -28 48 -28 3 0 22 -11 43 -26 20 -14 65 -38 100 -55 34
-16 65 -34 68 -39 3 -5 31 -21 63 -37 31 -15 76 -40 98 -55 23 -16 46 -28 52
-28 5 0 15 -7 22 -15 7 -9 29 -23 49 -32 20 -9 53 -30 73 -46 l38 -29 0 -1467
0 -1467 -23 -20 c-12 -10 -35 -25 -50 -33 -15 -8 -27 -18 -27 -23 0 -4 -9 -8
-20 -8 -11 0 -20 -4 -20 -10 0 -5 -9 -10 -20 -10 -11 0 -20 -4 -20 -10 0 -5
-9 -10 -20 -10 -11 0 -20 -4 -20 -10 0 -5 -6 -10 -13 -10 -7 0 -23 -9 -35 -20
-12 -11 -28 -20 -37 -20 -8 0 -15 -4 -15 -10 0 -5 -8 -10 -18 -10 -10 0 -24
-9 -32 -20 -8 -11 -22 -20 -32 -20 -10 0 -18 -4 -18 -10 0 -5 -8 -10 -18 -10
-10 0 -24 -9 -32 -20 -8 -11 -22 -20 -32 -20 -10 0 -18 -4 -18 -10 0 -5 -9
-10 -20 -10 -11 0 -20 -4 -20 -10 0 -5 -8 -10 -18 -10 -10 0 -24 -9 -32 -20
-8 -11 -22 -20 -32 -20 -10 0 -18 -4 -18 -10 0 -5 -9 -10 -20 -10 -11 0 -20
-4 -20 -10 0 -5 -9 -10 -20 -10 -11 0 -20 -4 -20 -10 0 -5 -6 -10 -13 -10 -7
0 -23 -9 -35 -20 -12 -11 -28 -20 -37 -20 -8 0 -15 -4 -15 -10 0 -5 -8 -10
-18 -10 -10 0 -24 -9 -32 -20 -8 -11 -22 -20 -32 -20 -10 0 -18 -4 -18 -10 0
-5 -8 -10 -18 -10 -10 0 -24 -9 -32 -20 -8 -11 -22 -20 -32 -20 -10 0 -18 -4
-18 -10 0 -5 -9 -10 -20 -10 -11 0 -20 -4 -20 -10 0 -5 -8 -10 -18 -10 -10 0
-24 -9 -32 -20 -8 -11 -22 -20 -32 -20 -10 0 -18 -4 -18 -10 0 -5 -9 -10 -20
-10 -11 0 -20 -4 -20 -10 0 -5 -9 -10 -20 -10 -11 0 -20 -4 -20 -10 0 -5 -8
-10 -18 -10 -10 0 -24 -9 -32 -20 -8 -11 -22 -20 -32 -20 -10 0 -18 -4 -18
-10 0 -5 -8 -10 -18 -10 -10 0 -24 -9 -32 -20 -8 -11 -22 -20 -32 -20 -10 0
-18 -4 -18 -10 0 -5 -8 -10 -18 -10 -10 0 -24 -9 -32 -20 -8 -11 -22 -20 -32
-20 -10 0 -18 -4 -18 -10 0 -5 -9 -10 -20 -10 -11 0 -20 -4 -20 -10 0 -5 -7
-10 -15 -10 -9 0 -25 -9 -37 -20 -12 -11 -28 -20 -35 -20 -19 0 -16 -48 5 -78
10 -15 22 -35 25 -44 4 -10 16 -18 27 -18 20 0 100 36 110 50 3 4 34 22 70 41
36 18 67 36 70 40 3 3 25 17 50 29 25 12 47 26 50 29 3 4 34 22 70 40 91 48
104 55 110 61 4 4 29 18 115 64 11 6 22 14 25 17 3 3 34 21 70 40 36 19 67 36
70 39 6 6 43 27 95 54 22 12 42 23 45 26 3 3 14 10 25 16 48 26 70 39 75 44 4
4 29 18 115 64 11 6 22 14 25 17 3 3 34 21 70 40 36 19 67 36 70 39 5 5 27 18
75 44 11 6 22 13 25 16 3 3 23 14 45 26 52 27 89 48 95 54 6 6 37 24 91 53
l37 20 88 -54 c48 -29 106 -62 128 -74 23 -11 59 -32 81 -46 22 -14 56 -33 75
-43 19 -9 60 -32 90 -51 60 -37 164 -97 250 -146 30 -17 76 -44 103 -60 26
-16 50 -29 52 -29 3 0 38 -20 78 -43 87 -53 199 -118 287 -168 140 -78 280
-159 400 -229 120 -71 373 -217 605 -350 192 -109 249 -143 285 -165 72 -46
112 -65 131 -65 20 0 60 17 69 30 3 4 34 22 70 41 36 18 67 36 70 40 3 3 34
21 70 40 36 18 67 36 70 40 3 3 30 19 60 34 30 15 57 31 60 35 3 4 30 20 60
35 30 15 57 30 60 34 3 3 25 17 50 30 74 40 84 46 94 54 12 10 96 57 191 108
33 17 62 35 65 39 3 4 30 20 60 35 30 15 57 31 60 35 3 4 34 22 70 41 36 18
67 36 70 40 3 3 30 19 60 34 30 15 57 31 60 35 8 12 68 40 85 40 8 0 15 3 15
8 0 4 21 18 48 32 26 13 49 27 52 31 3 3 25 16 50 30 25 13 47 26 50 29 9 9
63 39 120 67 30 15 57 30 60 34 3 3 34 21 70 40 36 19 67 37 70 40 3 3 25 16
50 30 25 13 47 27 50 30 3 3 25 16 50 30 25 13 47 27 50 30 3 4 43 26 90 50
47 24 87 47 90 50 3 3 34 21 70 40 36 19 67 37 70 40 3 3 25 16 50 30 25 13
47 27 50 30 3 3 25 16 50 30 25 13 51 29 58 36 9 9 12 331 12 1546 l0 1534 68
34 c37 19 76 42 86 51 11 10 26 18 33 18 7 0 13 4 13 9 0 4 30 23 68 42 37 18
69 36 72 39 8 8 61 38 120 67 30 15 61 33 68 40 7 7 30 20 50 30 20 9 39 19
42 22 3 4 15 12 28 19 56 31 67 38 79 49 7 6 39 24 70 39 32 16 60 31 63 34 8
8 60 37 120 67 30 15 61 33 68 40 7 7 30 20 50 30 20 9 39 19 42 22 6 7 40 27
95 55 22 12 46 27 53 33 7 7 30 20 50 30 20 9 39 19 42 22 8 9 59 38 120 68
30 15 61 33 69 41 7 7 31 21 52 30 22 9 39 20 39 24 0 5 7 8 15 8 8 0 15 4 15
8 0 5 16 14 35 22 19 8 35 17 35 22 0 4 6 8 14 8 8 0 16 3 18 8 2 4 26 18 53
32 28 14 52 27 55 30 8 8 62 38 120 67 30 15 57 31 58 35 2 4 10 8 18 8 8 0
14 3 14 8 0 4 15 13 33 21 17 8 34 17 37 20 8 10 64 42 83 48 9 3 17 9 17 14
0 5 7 9 15 9 8 0 15 3 15 8 0 4 25 18 55 32 30 14 55 28 55 33 0 4 6 7 14 7 8
0 16 3 18 8 2 4 34 22 71 41 l68 34 27 -19 c15 -11 50 -30 77 -44 28 -13 57
-29 65 -36 8 -6 42 -26 75 -44 33 -19 87 -50 120 -71 33 -21 78 -47 100 -58
22 -11 56 -30 75 -43 19 -13 58 -34 85 -48 28 -13 69 -37 92 -52 23 -15 44
-28 48 -28 4 0 26 -13 50 -30 24 -16 46 -30 50 -30 4 0 25 -13 48 -28 23 -15
56 -34 72 -42 17 -8 48 -26 70 -40 22 -14 53 -32 70 -40 16 -8 58 -32 92 -52
35 -21 65 -38 69 -38 3 0 25 -13 49 -30 24 -16 46 -30 50 -30 4 0 25 -13 48
-28 23 -15 56 -34 72 -42 17 -8 48 -26 70 -40 22 -14 53 -32 70 -40 24 -12
132 -75 205 -120 55 -34 223 -130 227 -130 3 0 17 -8 31 -18 15 -11 59 -36 97
-57 39 -20 77 -43 85 -49 8 -7 29 -18 45 -26 17 -8 48 -26 70 -41 91 -61 222
-129 246 -129 20 0 54 16 76 37 7 6 39 24 70 39 32 16 67 36 77 46 11 10 26
18 33 18 7 0 13 4 13 9 0 4 30 23 68 42 37 18 69 36 72 39 8 8 61 38 120 67
30 15 61 33 68 40 7 7 30 20 50 30 20 9 39 19 42 22 3 4 15 12 28 19 56 31 67
38 79 49 7 6 39 24 70 39 32 16 60 31 63 34 8 8 60 37 120 67 30 15 61 33 68
40 7 7 30 20 50 30 20 9 39 19 42 22 3 4 15 12 28 19 12 6 32 18 45 25 12 6
24 14 27 17 8 8 62 39 120 67 30 15 61 33 69 41 7 7 31 21 52 30 35 15 39 20
39 53 0 21 -7 42 -16 50 -9 7 -20 23 -25 36 -5 14 -17 23 -30 23 -20 0 -73
-25 -95 -45 -6 -6 -30 -19 -53 -29 -22 -11 -41 -23 -41 -28 0 -4 -9 -8 -20 -8
-11 0 -20 -4 -20 -9 0 -5 -13 -14 -30 -21 -16 -7 -30 -16 -30 -21 0 -5 -9 -9
-20 -9 -11 0 -20 -4 -20 -10 0 -5 -9 -10 -20 -10 -11 0 -20 -4 -20 -9 0 -5
-13 -14 -30 -21 -16 -7 -30 -16 -30 -21 0 -5 -9 -9 -20 -9 -11 0 -20 -4 -20
-10 0 -5 -9 -10 -20 -10 -11 0 -20 -4 -20 -9 0 -5 -8 -11 -17 -14 -18 -6 -73
-37 -83 -47 -10 -10 -65 -41 -82 -47 -10 -3 -18 -9 -18 -14 0 -5 -9 -9 -20 -9
-11 0 -20 -4 -20 -9 0 -5 -13 -14 -30 -21 -16 -7 -30 -16 -30 -21 0 -5 -9 -9
-20 -9 -11 0 -20 -4 -20 -10 0 -5 -9 -10 -19 -10 -11 0 -21 -3 -23 -7 -4 -10
-57 -42 -80 -50 -10 -3 -18 -9 -18 -14 0 -5 -9 -9 -20 -9 -11 0 -20 -4 -20 -9
0 -5 -8 -11 -17 -14 -18 -6 -73 -37 -83 -47 -10 -10 -65 -41 -82 -47 -10 -3
-18 -9 -18 -14 0 -5 -9 -9 -20 -9 -11 0 -20 -4 -20 -9 0 -5 -13 -14 -30 -21
-16 -7 -30 -16 -30 -21 0 -5 -9 -9 -20 -9 -11 0 -20 -4 -20 -10 0 -5 -9 -10
-20 -10 -11 0 -20 -4 -20 -8 0 -5 -16 -14 -35 -22 -19 -8 -35 -17 -35 -22 0
-4 -7 -8 -15 -8 -8 0 -15 -4 -15 -10 0 -8 -120 50 -147 72 -7 6 -38 23 -69 40
-32 16 -80 44 -108 62 -28 18 -71 44 -96 57 -25 13 -52 29 -60 35 -8 7 -50 31
-94 54 -73 38 -124 68 -171 97 -11 7 -40 24 -65 38 -25 14 -83 48 -130 76 -47
28 -114 67 -150 86 -58 31 -218 124 -428 250 -40 23 -74 43 -77 43 -5 0 -237
133 -335 191 -41 25 -113 67 -160 94 -150 84 -224 128 -260 150 -19 12 -78 46
-130 76 -52 29 -98 58 -102 64 -4 5 -8 416 -8 913 l0 902 -70 0 -70 0 0 -903z
m-5193 -1093 c26 -15 55 -32 63 -38 8 -7 38 -23 65 -36 28 -14 69 -37 91 -52
23 -16 45 -28 50 -28 4 0 15 -6 23 -14 9 -7 43 -28 76 -46 33 -18 67 -38 75
-44 8 -7 38 -23 65 -36 28 -13 57 -29 65 -36 8 -7 46 -28 84 -48 38 -20 81
-45 96 -56 16 -11 31 -20 35 -20 3 0 25 -13 48 -28 23 -16 59 -36 79 -45 20
-10 40 -22 43 -27 3 -5 31 -21 63 -36 31 -15 64 -33 72 -40 8 -6 51 -31 95
-54 44 -23 87 -48 96 -56 8 -8 19 -14 23 -14 5 0 27 -13 50 -28 22 -15 58 -35
78 -45 20 -10 40 -22 43 -27 3 -5 44 -27 90 -50 46 -23 87 -45 90 -50 3 -5 35
-23 70 -40 35 -17 67 -35 70 -40 4 -6 26 -19 50 -30 24 -11 47 -24 50 -30 3
-6 26 -19 50 -30 24 -11 46 -24 50 -29 3 -6 44 -28 90 -51 46 -23 87 -45 90
-50 3 -5 35 -23 70 -40 35 -17 67 -35 70 -40 4 -6 26 -19 50 -30 24 -11 47
-24 50 -30 3 -5 23 -17 43 -26 20 -10 45 -24 55 -32 16 -14 17 -98 17 -1494 0
-1399 -1 -1479 -17 -1485 -10 -4 -25 -15 -34 -25 -9 -10 -24 -18 -33 -18 -9 0
-16 -4 -16 -10 0 -5 -9 -10 -20 -10 -11 0 -20 -4 -20 -10 0 -5 -8 -10 -18 -10
-10 0 -24 -9 -32 -20 -8 -11 -22 -20 -32 -20 -10 0 -18 -4 -18 -10 0 -5 -9
-10 -20 -10 -11 0 -20 -4 -20 -10 0 -5 -8 -10 -18 -10 -10 0 -24 -9 -32 -20
-8 -11 -22 -20 -32 -20 -10 0 -18 -4 -18 -10 0 -5 -8 -10 -18 -10 -10 0 -24
-9 -32 -20 -8 -11 -22 -20 -32 -20 -10 0 -18 -4 -18 -10 0 -5 -9 -10 -20 -10
-11 0 -20 -4 -20 -9 0 -5 -13 -14 -30 -21 -16 -7 -30 -16 -30 -21 0 -5 -9 -9
-20 -9 -11 0 -20 -4 -20 -10 0 -5 -9 -10 -20 -10 -11 0 -20 -4 -20 -10 0 -5
-8 -10 -18 -10 -10 0 -24 -9 -32 -20 -8 -11 -22 -20 -32 -20 -10 0 -18 -4 -18
-10 0 -5 -9 -10 -20 -10 -11 0 -20 -4 -20 -10 0 -5 -8 -10 -18 -10 -10 0 -24
-9 -32 -20 -8 -11 -22 -20 -32 -20 -10 0 -18 -4 -18 -10 0 -5 -8 -10 -18 -10
-10 0 -24 -9 -32 -20 -8 -11 -22 -20 -32 -20 -10 0 -18 -4 -18 -10 0 -5 -7
-10 -15 -10 -9 0 -25 -9 -37 -20 -12 -11 -28 -20 -35 -20 -7 0 -13 -4 -13 -10
0 -5 -9 -10 -20 -10 -11 0 -20 -4 -20 -10 0 -5 -9 -10 -20 -10 -11 0 -20 -4
-20 -10 0 -5 -8 -10 -18 -10 -10 0 -24 -9 -32 -20 -8 -11 -22 -20 -32 -20 -10
0 -18 -4 -18 -10 0 -5 -9 -10 -20 -10 -11 0 -20 -4 -20 -10 0 -5 -6 -10 -13
-10 -7 0 -23 -9 -35 -20 -12 -11 -28 -20 -37 -20 -8 0 -15 -4 -15 -10 0 -5 -6
-10 -13 -10 -7 0 -23 -9 -35 -20 -12 -11 -28 -20 -37 -20 -8 0 -15 -4 -15 -10
0 -5 -7 -10 -15 -10 -9 0 -25 -9 -37 -20 -12 -11 -28 -20 -35 -20 -7 0 -13 -4
-13 -10 0 -5 -9 -10 -20 -10 -11 0 -20 -4 -20 -10 0 -5 -9 -10 -20 -10 -11 0
-20 -4 -20 -10 0 -5 -6 -10 -13 -10 -7 0 -23 -9 -35 -20 -12 -11 -28 -20 -37
-20 -8 0 -15 -4 -15 -10 0 -5 -9 -10 -20 -10 -11 0 -20 -4 -20 -10 0 -5 -6
-10 -13 -10 -7 0 -23 -9 -35 -20 -12 -11 -28 -20 -37 -20 -8 0 -15 -4 -15 -9
0 -5 -13 -14 -30 -21 -16 -7 -30 -16 -30 -21 0 -5 -9 -9 -20 -9 -11 0 -20 -4
-20 -10 0 -5 -7 -10 -15 -10 -9 0 -25 -9 -37 -20 -12 -11 -28 -20 -35 -20 -7
0 -13 -4 -13 -10 0 -5 -9 -10 -20 -10 -11 0 -20 -4 -20 -10 0 -5 -9 -10 -20
-10 -11 0 -20 -4 -20 -10 0 -5 -6 -10 -13 -10 -7 0 -23 -9 -35 -20 -12 -11
-28 -20 -37 -20 -8 0 -15 -4 -15 -10 0 -5 -9 -10 -20 -10 -11 0 -20 -4 -20
-10 0 -5 -7 -10 -15 -10 -8 0 -15 -4 -15 -10 0 -5 -7 -10 -15 -10 -8 0 -15 -4
-15 -10 0 -5 -9 -10 -20 -10 -11 0 -20 -4 -20 -9 0 -5 -13 -14 -30 -21 -16 -7
-30 -16 -30 -21 0 -5 -9 -9 -20 -9 -11 0 -20 -4 -20 -10 0 -19 -43 -10 -87 20
-24 17 -46 30 -50 30 -3 0 -25 14 -50 30 -24 17 -46 30 -50 30 -3 0 -24 12
-47 28 -22 15 -63 38 -91 52 -27 13 -57 29 -65 36 -8 6 -51 31 -95 54 -44 23
-87 48 -96 56 -8 8 -19 14 -24 14 -5 0 -16 6 -24 14 -9 7 -43 28 -76 46 -33
18 -67 38 -75 44 -8 7 -37 23 -65 36 -27 13 -57 29 -65 36 -8 6 -31 20 -50 31
-19 10 -72 41 -118 68 -46 28 -100 59 -121 70 -20 11 -50 29 -66 39 -16 11
-52 32 -80 46 -27 15 -74 41 -103 58 -29 18 -55 32 -58 32 -3 0 -25 14 -49 30
-24 17 -46 30 -50 30 -4 0 -26 14 -50 30 -24 17 -46 30 -49 30 -3 0 -29 14
-58 32 -29 17 -75 43 -103 58 -27 15 -80 45 -118 68 -37 23 -70 42 -73 42 -3
0 -25 14 -49 30 -24 17 -47 30 -50 30 -4 0 -19 8 -33 18 -15 11 -52 32 -82 49
-30 17 -77 43 -105 59 -27 16 -67 38 -89 49 -21 11 -51 32 -67 47 l-29 26 0
1476 c0 1305 2 1476 15 1476 8 0 15 4 15 8 0 5 16 14 35 22 19 8 35 17 35 22
0 4 7 8 15 8 8 0 15 4 15 8 0 5 16 14 35 22 19 8 35 17 35 22 0 4 7 8 15 8 8
0 15 3 15 8 0 4 25 18 55 32 30 14 55 28 55 33 0 4 7 7 15 7 8 0 15 3 15 8 0
4 25 18 55 32 30 14 55 28 55 31 0 3 16 11 35 19 19 8 35 17 35 20 0 3 16 12
35 20 19 8 35 17 35 22 0 4 7 8 15 8 8 0 15 5 15 10 0 6 7 10 15 10 8 0 15 4
15 8 0 5 16 14 35 22 19 8 35 17 35 22 0 4 7 8 15 8 8 0 15 3 15 8 0 4 25 18
55 32 30 14 55 28 55 31 0 3 16 11 35 19 19 8 35 16 35 19 0 3 25 17 55 31 30
14 55 28 55 33 0 4 7 7 15 7 8 0 15 4 15 8 0 5 16 14 35 22 19 8 35 17 35 21
0 4 8 9 18 12 17 6 72 37 82 47 8 8 62 39 120 67 30 15 57 31 58 35 2 4 10 8
17 8 7 0 15 3 17 8 2 4 26 18 53 32 28 14 52 27 55 30 5 5 27 18 75 44 11 6
22 13 25 16 3 3 15 11 28 18 12 6 32 18 45 25 12 6 24 14 27 17 8 8 62 39 120
67 30 15 61 33 67 39 7 7 39 25 70 40 32 16 60 31 63 34 3 3 15 11 28 18 56
31 67 38 79 49 7 6 39 24 70 39 32 16 64 34 70 40 7 7 39 25 70 40 32 16 60
32 61 36 2 4 9 8 15 8 7 0 23 9 37 20 33 25 40 25 97 -6z"/>
<path d="M5304 10276 c-10 -20 -21 -36 -26 -36 -4 0 -8 -17 -8 -37 0 -42 15
-55 122 -107 32 -15 60 -31 63 -36 3 -5 23 -17 43 -27 20 -9 56 -29 79 -45 23
-15 44 -28 48 -28 4 0 25 -13 48 -28 23 -15 56 -34 72 -42 17 -8 48 -26 70
-40 22 -15 66 -39 97 -54 32 -15 60 -31 63 -36 3 -5 23 -17 43 -27 20 -10 56
-30 78 -45 23 -15 45 -28 49 -28 4 0 19 -9 35 -20 15 -11 58 -36 96 -56 38
-20 76 -42 84 -48 8 -7 41 -25 72 -40 32 -15 60 -31 63 -36 3 -5 23 -17 43
-27 20 -10 56 -30 78 -45 23 -15 45 -28 49 -28 3 0 25 -13 48 -28 23 -16 68
-41 99 -56 32 -15 60 -31 63 -36 3 -5 35 -23 70 -40 35 -17 67 -35 70 -40 4
-6 25 -19 48 -29 23 -11 59 -31 80 -45 21 -14 40 -26 43 -26 3 0 19 -9 34 -20
36 -26 139 -80 152 -80 14 0 38 26 38 42 0 8 9 20 20 28 25 18 26 61 3 83 -10
8 -53 34 -97 56 -43 22 -86 46 -95 54 -9 7 -42 26 -73 41 -32 15 -60 32 -63
37 -4 5 -26 18 -50 29 -24 11 -47 24 -50 30 -3 5 -23 17 -43 26 -20 10 -44 23
-52 30 -8 7 -49 30 -90 51 -41 21 -93 50 -115 64 -22 13 -53 31 -70 39 -16 8
-50 29 -75 46 -25 16 -70 43 -100 59 -30 16 -62 35 -70 41 -8 7 -50 30 -93 52
-43 22 -83 44 -90 50 -6 5 -39 24 -72 42 -33 18 -82 47 -110 65 -27 18 -70 43
-95 56 -25 13 -52 29 -60 35 -8 7 -49 30 -90 51 -41 21 -94 51 -117 66 -24 15
-45 27 -47 27 -3 0 -58 32 -122 71 -64 38 -129 73 -145 76 -25 5 -30 1 -45
-31z"/>
<!--
<path d="M4335 9111 c-3 -6 -30 -11 -60 -11 -30 0 -57 -4 -60 -10 -3 -5 -22
-10 -41 -10 -19 0 -34 -4 -34 -10 0 -5 -11 -10 -24 -10 -14 0 -28 -4 -31 -10
-3 -5 -15 -10 -26 -10 -10 0 -19 -4 -19 -10 0 -5 -9 -10 -20 -10 -11 0 -20 -4
-20 -10 0 -5 -7 -10 -15 -10 -8 0 -15 -4 -15 -10 0 -5 -7 -10 -15 -10 -8 0
-15 -4 -15 -10 0 -5 -5 -10 -11 -10 -9 0 -82 -72 -114 -112 -24 -30 -54 -89
-74 -145 -17 -49 -21 -82 -21 -189 0 -171 25 -244 122 -356 80 -93 194 -168
348 -230 14 -6 33 -14 42 -19 10 -5 27 -9 37 -9 11 0 23 -4 26 -10 3 -5 19
-10 35 -10 16 0 32 -4 35 -10 3 -5 26 -10 50 -10 24 0 47 -4 50 -10 3 -5 26
-10 50 -10 24 0 47 -4 50 -10 3 -5 21 -10 40 -10 19 0 37 -4 40 -10 3 -5 17
-10 30 -10 13 0 27 -4 30 -10 3 -5 14 -10 24 -10 29 0 139 -61 186 -102 67
-59 95 -125 95 -224 0 -46 -4 -85 -9 -88 -4 -3 -11 -18 -14 -33 -3 -16 -14
-38 -24 -51 -29 -37 -91 -102 -98 -102 -3 0 -15 -9 -27 -20 -12 -11 -28 -20
-35 -20 -7 0 -13 -4 -13 -10 0 -5 -11 -10 -25 -10 -14 0 -25 -4 -25 -10 0 -5
-16 -10 -35 -10 -19 0 -35 -4 -35 -10 0 -6 -27 -10 -60 -10 -37 0 -60 -4 -60
-11 0 -15 -206 5 -225 22 -5 5 -17 9 -26 9 -9 0 -43 14 -75 31 -155 80 -274
269 -274 432 l0 57 -145 0 -145 0 0 -73 c0 -130 49 -304 114 -402 48 -72 137
-163 196 -200 73 -47 151 -85 170 -85 11 0 22 -4 25 -10 3 -5 19 -10 35 -10
16 0 32 -4 35 -10 3 -5 33 -10 65 -10 32 0 62 -4 65 -10 4 -6 53 -10 115 -10
62 0 111 4 115 10 3 6 35 10 70 10 35 0 67 5 70 10 3 6 21 10 40 10 19 0 37 5
40 10 3 6 15 10 26 10 10 0 27 4 37 9 9 5 35 17 57 28 56 27 86 45 109 66 11
9 24 17 29 17 10 0 107 98 107 109 0 4 11 21 25 37 14 16 25 34 25 41 0 6 4
13 8 15 10 4 42 99 54 163 17 85 21 217 8 260 -43 145 -94 215 -214 297 -69
48 -163 98 -182 98 -7 0 -29 9 -49 20 -20 11 -46 20 -60 20 -13 0 -27 5 -30
10 -3 6 -19 10 -35 10 -16 0 -32 5 -35 10 -3 6 -21 10 -40 10 -19 0 -37 5 -40
10 -3 6 -26 10 -50 10 -24 0 -47 5 -50 10 -3 6 -26 10 -50 10 -24 0 -47 5 -50
10 -3 6 -17 10 -31 10 -13 0 -32 4 -42 9 -9 5 -48 24 -87 42 -85 42 -187 134
-223 203 -21 43 -26 65 -26 135 0 57 4 86 12 89 7 2 12 10 12 18 0 16 6 24 62
84 20 22 41 40 47 40 6 0 11 3 11 8 0 4 15 13 33 20 17 7 40 18 49 23 10 5 27
9 37 9 11 0 23 5 26 10 3 6 26 10 50 10 24 0 47 5 50 10 3 6 37 10 75 10 38 0
72 -4 75 -10 3 -5 19 -10 36 -10 16 0 39 -5 52 -12 38 -19 61 -31 88 -45 14
-7 54 -43 90 -80 69 -73 128 -183 139 -258 l5 -40 148 -3 148 -3 -4 88 c-6
129 -36 227 -95 314 -9 14 -27 41 -39 60 -32 49 -126 122 -213 164 -41 20 -83
41 -92 46 -10 5 -28 9 -41 9 -13 0 -27 4 -32 9 -22 21 -388 41 -400 22z"/>
<path d="M5637 9073 c-4 -3 -7 -503 -7 -1110 l0 -1103 710 0 710 0 0 130 0
130 -558 0 c-421 0 -561 3 -570 12 -9 9 -12 240 -12 980 l0 968 -133 0 c-74 0
-137 -3 -140 -7z"/>
-->
<path d="M3120 7810 l0 -1231 78 3 77 3 3 1228 2 1227 -80 0 -80 0 0 -1230z"/>
<path d="M7320 6640 c-8 -11 -22 -20 -32 -20 -10 0 -18 -4 -18 -10 0 -5 -9
-10 -20 -10 -11 0 -20 -4 -20 -10 0 -5 -8 -10 -18 -10 -10 0 -24 -9 -32 -20
-8 -11 -22 -20 -32 -20 -10 0 -18 -4 -18 -10 0 -5 -9 -10 -20 -10 -11 0 -20
-4 -20 -10 0 -5 -9 -10 -20 -10 -11 0 -20 -4 -20 -10 0 -5 -7 -10 -15 -10 -8
0 -15 -4 -15 -10 0 -5 -7 -10 -15 -10 -8 0 -15 -4 -15 -10 0 -5 -9 -10 -20
-10 -11 0 -20 -4 -20 -10 0 -5 -8 -10 -18 -10 -10 0 -24 -9 -32 -20 -8 -11
-22 -20 -32 -20 -10 0 -18 -4 -18 -10 0 -5 -8 -10 -18 -10 -10 0 -24 -9 -32
-20 -8 -11 -22 -20 -32 -20 -10 0 -18 -4 -18 -10 0 -5 -9 -10 -20 -10 -11 0
-20 -4 -20 -10 0 -5 -8 -10 -18 -10 -10 0 -24 -9 -32 -20 -8 -11 -22 -20 -32
-20 -10 0 -18 -4 -18 -10 0 -5 -9 -10 -20 -10 -11 0 -20 -4 -20 -10 0 -5 -9
-10 -20 -10 -11 0 -20 -4 -20 -10 0 -5 -6 -10 -13 -10 -7 0 -23 -9 -35 -20
-12 -11 -28 -20 -37 -20 -8 0 -15 -4 -15 -10 0 -5 -8 -10 -18 -10 -10 0 -24
-9 -32 -20 -8 -11 -22 -20 -32 -20 -10 0 -18 -4 -18 -10 0 -5 -6 -10 -13 -10
-7 0 -23 -9 -35 -20 -12 -11 -28 -20 -37 -20 -8 0 -15 -4 -15 -10 0 -5 -9 -10
-20 -10 -11 0 -20 -4 -20 -10 0 -5 -8 -10 -18 -10 -10 0 -24 -9 -32 -20 -8
-11 -22 -20 -32 -20 -10 0 -18 -4 -18 -10 0 -5 -9 -10 -20 -10 -11 0 -20 -4
-20 -10 0 -5 -9 -10 -20 -10 -11 0 -20 -4 -20 -10 0 -5 -7 -10 -15 -10 -8 0
-15 -4 -15 -10 0 -5 -7 -10 -15 -10 -8 0 -15 -4 -15 -10 0 -5 -9 -10 -20 -10
-11 0 -20 -4 -20 -10 0 -5 -7 -10 -15 -10 -8 0 -15 -4 -15 -10 0 -5 -7 -10
-15 -10 -8 0 -15 -4 -15 -10 0 -5 -9 -10 -20 -10 -11 0 -20 -4 -20 -10 0 -5
-6 -10 -13 -10 -7 0 -23 -9 -35 -20 -12 -11 -28 -20 -37 -20 -8 0 -15 -4 -15
-10 0 -5 -9 -10 -20 -10 -11 0 -20 -4 -20 -10 0 -5 -8 -10 -18 -10 -10 0 -24
-9 -32 -20 -8 -11 -22 -20 -32 -20 -10 0 -18 -4 -18 -10 0 -5 -9 -10 -20 -10
-11 0 -20 -4 -20 -10 0 -5 -9 -10 -20 -10 -11 0 -20 -4 -20 -10 0 -5 -7 -10
-15 -10 -8 0 -15 -4 -15 -10 0 -5 -7 -10 -15 -10 -8 0 -15 -4 -15 -10 0 -5 -7
-10 -15 -10 -9 0 -25 -9 -37 -20 -12 -11 -28 -20 -35 -20 -7 0 -13 -4 -13 -10
0 -5 -7 -10 -16 -10 -24 0 -44 -26 -44 -57 0 -41 45 -103 75 -103 13 0 25 4
27 8 2 5 32 24 68 43 36 18 67 36 70 40 3 3 43 25 90 49 47 24 87 47 90 50 3
3 15 11 28 18 12 6 32 18 45 25 12 6 24 14 27 17 6 6 43 27 95 54 22 12 42 24
45 27 3 4 43 26 90 50 47 24 87 47 90 50 3 3 25 16 50 30 25 13 47 27 50 30 3
3 25 16 50 30 25 13 47 26 50 29 6 6 43 27 95 54 22 12 42 23 45 26 9 9 63 39
120 67 30 15 57 30 60 33 3 4 25 17 50 31 25 13 47 27 50 30 3 4 25 17 50 29
25 12 47 26 50 30 3 4 43 27 90 51 47 24 91 49 97 56 7 6 39 24 70 39 32 16
60 31 63 34 3 4 25 17 50 31 25 13 47 27 50 30 3 3 34 21 70 40 36 19 74 42
84 52 11 9 26 17 33 17 17 0 17 43 1 73 -38 67 -89 87 -118 47z"/>
<path d="M13044 4003 c-3 -10 -24 -56 -46 -103 -22 -47 -53 -112 -68 -145 -35
-76 -93 -201 -158 -335 -27 -58 -62 -132 -77 -165 -15 -33 -46 -100 -70 -150
-23 -49 -50 -108 -60 -130 -10 -22 -42 -91 -72 -153 -30 -62 -53 -118 -50
-126 5 -14 61 -46 79 -46 15 0 38 27 38 44 0 9 5 16 10 16 6 0 10 9 10 20 0
11 5 20 10 20 6 0 10 9 10 20 0 11 5 20 10 20 6 0 10 7 10 15 0 8 4 23 9 33
37 74 51 106 51 118 0 8 5 14 10 14 6 0 10 9 10 20 0 11 5 20 10 20 6 0 10 9
10 20 0 11 5 20 10 20 6 0 10 7 10 15 0 9 7 27 16 40 l16 25 288 0 c261 0 288
-2 302 -17 14 -18 40 -70 93 -188 63 -142 130 -275 139 -275 5 0 27 8 48 17
52 23 50 44 -13 173 -28 58 -55 114 -60 125 -4 11 -35 77 -68 147 -34 69 -61
129 -61 133 0 4 -24 57 -54 118 -30 62 -67 141 -84 177 -16 36 -46 99 -65 141
-20 42 -50 107 -68 145 -69 153 -92 194 -105 194 -8 0 -17 -8 -20 -17z m99
-408 c36 -77 85 -183 110 -235 25 -52 42 -98 38 -103 -4 -4 -108 -6 -232 -5
l-224 3 3 25 c2 14 8 27 13 28 5 2 9 10 9 17 0 7 9 30 19 52 11 21 25 53 33
71 7 17 16 32 20 32 5 0 8 7 8 15 0 8 9 30 20 50 11 20 20 42 20 50 0 8 5 15
10 15 6 0 10 9 10 19 0 11 5 23 10 26 6 3 10 15 10 26 0 10 5 19 10 19 6 0 10
9 10 19 0 20 20 34 31 22 4 -3 36 -69 72 -146z"/>
<path d="M1320 3981 c-61 -12 -96 -23 -160 -56 -60 -30 -147 -113 -169 -160
-7 -16 -17 -38 -22 -47 -12 -24 -11 -225 1 -233 6 -3 10 -15 10 -25 0 -23 60
-108 76 -109 6 -1 17 -8 24 -16 7 -9 45 -30 84 -48 68 -32 93 -41 196 -67 25
-6 59 -16 76 -21 17 -5 40 -9 52 -9 11 0 24 -4 27 -10 3 -5 14 -10 24 -10 24
0 101 -38 129 -63 13 -12 30 -37 39 -55 15 -31 14 -35 -7 -76 -25 -49 -70 -77
-158 -96 -51 -12 -76 -11 -157 8 -83 18 -139 65 -173 143 -13 31 -22 38 -51
43 -20 3 -65 10 -101 16 -36 6 -82 13 -102 16 l-38 6 0 -65 c0 -37 5 -79 11
-94 66 -162 136 -227 314 -289 41 -14 84 -17 228 -17 119 0 182 4 190 12 6 6
21 11 34 11 13 0 31 4 41 9 9 5 31 15 47 22 17 8 36 20 43 27 7 6 17 12 22 12
15 0 90 78 90 94 0 9 3 16 8 16 4 0 13 15 20 33 7 17 18 40 23 49 11 22 12
222 0 246 -4 9 -17 35 -27 57 -27 56 -84 108 -157 142 -59 28 -92 39 -189 64
-24 6 -57 15 -74 20 -17 5 -40 9 -52 9 -11 0 -23 4 -26 9 -3 4 -24 11 -47 15
-22 4 -62 18 -89 31 -67 34 -111 101 -80 120 6 3 10 13 10 21 0 20 18 37 66
65 53 31 168 31 235 1 43 -19 99 -75 99 -99 0 -30 45 -41 233 -59 l67 -7 0 48
c0 160 -120 303 -294 351 -61 17 -282 26 -346 15z"/>
<path d="M11463 3983 c-10 -4 -13 -145 -13 -659 l0 -654 401 0 400 0 -3 53 -3
52 -330 5 c-181 3 -336 9 -342 13 -10 6 -13 138 -13 603 l0 594 -42 -1 c-24 0
-49 -3 -55 -6z"/>
<path d="M14048 3984 c-5 -4 -8 -301 -8 -661 l0 -653 229 0 c143 0 232 4 236
10 3 6 14 10 25 10 48 0 190 108 190 145 0 8 3 15 8 15 10 0 32 50 32 72 0 10
5 18 10 18 14 0 13 192 -1 227 -30 72 -40 91 -69 131 -17 23 -53 56 -81 73
l-50 31 23 16 c40 28 88 81 88 97 0 8 5 15 10 15 6 0 10 44 10 113 0 100 -3
119 -25 165 -31 64 -81 114 -148 149 -51 26 -58 27 -262 31 -115 2 -213 1
-217 -4z m419 -137 c51 -27 113 -98 113 -131 0 -8 5 -18 10 -21 13 -8 13 -69
1 -93 -5 -9 -16 -33 -25 -52 -19 -46 -42 -71 -89 -98 -34 -20 -52 -22 -176
-22 -93 0 -141 4 -149 12 -17 17 -17 424 1 432 6 3 68 4 137 3 114 -2 130 -5
177 -30z m62 -564 c29 -16 61 -39 71 -53 33 -47 60 -101 60 -121 0 -11 5 -29
11 -40 11 -22 2 -61 -35 -139 -25 -55 -90 -120 -120 -120 -8 0 -16 -5 -18 -11
-6 -17 -307 -25 -336 -10 -22 12 -22 15 -22 260 0 136 3 251 7 254 3 4 79 7
167 7 156 0 163 0 215 -27z"/>
<path d="M7785 3976 c-5 -3 -37 -12 -70 -22 -67 -19 -132 -49 -153 -70 -7 -8
-17 -14 -22 -14 -13 0 -170 -157 -170 -170 0 -5 -4 -10 -10 -10 -5 0 -10 -7
-10 -15 0 -8 -3 -15 -8 -15 -4 0 -13 -15 -20 -32 -7 -18 -18 -41 -23 -50 -5
-10 -9 -27 -9 -37 0 -11 -4 -23 -10 -26 -5 -3 -10 -24 -10 -45 0 -21 -4 -42
-10 -45 -6 -3 -10 -52 -10 -110 0 -58 4 -107 10 -110 6 -3 10 -23 10 -44 0
-20 4 -41 8 -46 5 -6 15 -30 22 -55 8 -25 26 -64 42 -87 15 -23 28 -45 28 -50
0 -13 144 -153 157 -153 6 0 16 -7 23 -15 16 -20 134 -76 185 -88 63 -15 284
-20 330 -7 22 6 56 16 75 21 43 13 121 50 138 66 7 7 17 13 22 13 15 0 170
158 170 172 0 8 9 20 20 28 11 8 20 22 20 32 0 10 5 18 10 18 6 0 10 9 10 19
0 11 5 23 10 26 6 3 10 21 10 40 0 19 5 37 10 40 6 4 10 55 10 121 l0 114
-330 0 -330 0 0 -130 0 -129 153 -3 c144 -3 152 -4 149 -22 -3 -17 -25 -40
-78 -85 -7 -6 -20 -11 -29 -11 -8 0 -15 -4 -15 -8 0 -16 -98 -36 -176 -35 -71
1 -88 5 -150 36 -77 39 -151 111 -178 173 -10 21 -22 47 -27 56 -12 24 -12
218 1 218 6 0 10 11 10 25 0 14 5 25 10 25 6 0 10 7 10 15 0 8 5 15 10 15 6 0
10 7 10 15 0 8 5 15 10 15 6 0 10 5 10 11 0 12 58 69 70 69 5 0 16 7 25 16 50
51 207 71 301 39 68 -23 151 -80 182 -126 15 -21 33 -38 39 -39 19 0 263 123
263 133 0 36 -138 184 -225 243 -102 67 -179 87 -345 91 -80 1 -149 1 -155 -1z"/>
<path d="M4737 3963 c-4 -3 -7 -296 -7 -650 l0 -643 510 0 510 0 0 118 c0 78
-4 122 -12 130 -9 9 -101 12 -353 12 -252 0 -344 3 -353 12 -15 15 -16 201 -2
229 10 18 24 19 295 19 l285 0 0 130 0 130 -283 0 c-207 0 -286 3 -295 12 -18
18 -16 232 1 247 9 7 116 12 328 13 l314 3 0 120 0 120 -466 3 c-256 1 -469
-1 -472 -5z"/>
<path d="M9970 3320 l0 -650 140 0 140 0 0 269 c0 236 2 270 16 275 28 11 524
7 545 -4 18 -10 19 -24 19 -275 l0 -265 145 0 145 0 -2 648 -3 647 -142 3
-143 3 0 -224 c0 -160 -3 -226 -12 -235 -16 -16 -520 -17 -549 -2 -18 10 -19
23 -19 235 l0 225 -140 0 -140 0 0 -650z"/>
<path d="M2120 3847 c0 -75 4 -117 12 -125 8 -8 65 -12 191 -12 104 0 186 -4
198 -10 18 -10 19 -27 19 -520 l0 -510 140 0 140 0 0 515 c0 283 1 516 3 517
1 1 92 4 202 7 l200 6 3 123 3 122 -556 0 -555 0 0 -113z"/>
<path d="M3430 3315 l0 -645 145 0 145 0 0 218 c0 156 3 221 12 230 7 7 33 12
58 12 40 0 49 -4 71 -32 28 -36 111 -154 184 -260 27 -40 65 -94 84 -120 l35
-48 173 0 c211 0 209 -3 98 140 -19 25 -46 61 -60 80 -13 19 -38 53 -54 75
-29 38 -48 64 -106 144 -23 32 -24 35 -7 47 9 7 23 14 30 14 13 0 97 54 117
75 6 5 16 22 24 38 8 15 18 27 23 27 4 0 8 9 8 20 0 11 5 20 10 20 6 0 10 10
10 23 0 13 5 28 11 34 7 7 11 59 11 141 0 125 -1 131 -32 197 -36 76 -89 134
-152 166 -88 45 -123 49 -490 49 l-348 0 0 -645z m614 400 c27 -8 58 -23 69
-33 47 -41 71 -145 47 -206 -12 -34 -63 -86 -83 -86 -9 0 -19 -4 -22 -10 -9
-15 -308 -13 -323 2 -13 13 -18 329 -5 341 13 14 267 7 317 -8z"/>
<path d="M5950 3315 l0 -645 130 0 130 0 0 420 c0 231 3 420 8 420 4 0 18 -17
32 -36 14 -20 37 -51 53 -69 15 -18 27 -36 27 -40 0 -4 12 -21 26 -39 50 -61
134 -176 134 -184 0 -5 14 -21 30 -37 17 -16 30 -33 30 -38 0 -5 12 -24 28
-42 15 -18 38 -50 52 -70 14 -20 37 -52 53 -70 15 -18 27 -37 27 -42 0 -5 14
-22 30 -38 17 -16 30 -32 30 -37 0 -4 15 -28 33 -52 l32 -45 128 0 127 -1 0
645 0 645 -120 0 -120 0 0 -368 c0 -203 -3 -372 -7 -375 -3 -4 -21 14 -40 41
-57 81 -131 185 -173 242 -22 30 -63 87 -90 125 -27 39 -73 102 -100 140 -28
39 -69 98 -93 132 l-42 63 -177 0 -178 0 0 -645z"/>
<path d="M8690 3835 l0 -125 188 0 c133 0 192 -4 200 -12 9 -9 12 -138 12
-520 l0 -508 150 0 150 0 2 518 3 517 198 3 197 2 0 125 0 125 -550 0 -550 0
0 -125z"/>
</g>
</svg>
